<svg width="1039" height="252" viewBox="0 0 1039 252" fill="none" xmlns="http://www.w3.org/2000/svg">
<path d="M57.0667 56.1334L0 112.4V182.133V251.733H113.333H226.667V182V112.4L170.4 56.1334L114 5.19753e-05L57.0667 56.1334ZM159.2 76.8001L204 121.2V175.067V229.067H113.333H22.6667V174.533V120.133L67.4667 75.8667C92.1333 51.4667 112.667 31.7334 113.333 32.0001C114 32.2667 134.533 52.4001 159.2 76.8001Z" fill="black"/>
<path d="M280 143.733V201.067H288.667H297.333L297.6 176L298 151.067H326H354V176.133V201.067H363.067H372V143.733V86.4H363.333H354.667V109.6C354.667 127.6 354.267 133.067 352.8 134.267C351.6 135.333 342.933 135.733 324.533 135.467L298 135.067L297.6 110.667L297.333 86.4H288.667H280V143.733Z" fill="black"/>
<path d="M712 87.3333C712 88 711.733 113.733 711.6 144.667L711.333 201.067H719.6H727.867L728.267 173.333C728.667 147.333 728.8 145.467 731.733 140.933C735.333 134.933 742.133 131.467 750.133 131.467C757.067 131.467 761.733 134.133 765.333 140.133C767.733 144 768 147.067 768 172.667V201.067H776H784V170C784 151.6 783.333 136.933 782.533 133.733C779.333 122.4 765.733 114.533 752 116.133C744.133 117.067 738.933 119.6 733.867 125.067C731.733 127.2 729.6 129.067 729.067 129.067C728.4 129.067 728 119.467 728 107.733V86.4H720C715.6 86.4 712 86.8 712 87.3333Z" fill="black"/>
<path d="M662.4 107.067L662 117.733L655.067 118.133L648 118.533V125.733V132.933L655.067 133.333L662 133.733L662.667 162.667L663.333 191.733L667.467 195.867C672.533 200.8 679.467 202.533 690.4 201.467C699.333 200.667 699.467 200.4 697.867 191.867C697.067 188.267 696.4 187.733 692.533 187.733C686.533 187.733 681.467 185.2 680.533 181.867C680.267 180.267 680.133 168.8 680.267 156.4L680.667 133.733L689.067 133.333L697.333 132.933V125.733V118.533L689.067 118.133L680.667 117.733L680 107.2L679.333 96.8001L671.067 96.5334L662.8 96.4001L662.4 107.067Z" fill="black"/>
<path d="M509.333 116.933C502.933 118.933 497.6 122.4 494.133 126.667L490.667 131.067V124.667V118.4H482.667H474.667V176.133V233.867L483.067 233.6L491.333 233.467V213.2C491.333 202.133 491.467 193.067 491.733 193.067C492 193.067 493.6 194.8 495.333 196.933C500.133 202.667 505.2 204.133 516.533 203.467C531.733 202.533 542 195.333 548.533 181.067C550.8 176.133 551.333 172.4 551.333 159.733C551.333 141.867 549.333 136 540 125.867C532.133 117.467 519.733 113.867 509.333 116.933ZM520.4 132.267C530 136.267 535.2 146.267 535.067 160.533C534.933 177.467 526.133 188.4 512.533 188.4C499.733 188.4 493.2 180.4 492.267 163.867C491.6 151.333 493.467 143.867 498.933 137.6C505.333 130.267 512 128.667 520.4 132.267Z" fill="black"/>
<path d="M589.6 117.733C575.6 122 568 131.2 564.533 147.867C559.2 173.2 569.067 196 588.133 201.6C607.467 207.333 626.8 200.533 635.333 184.8C638.8 178.533 639.333 176.133 639.733 163.6C640.533 144 638.133 136.133 628.933 126.933C618.533 116.533 604 113.2 589.6 117.733ZM609.733 132.267C615.2 134.533 620.533 140.533 622.533 146.267C624.533 152.533 624.4 169.2 622.133 174.533C614.667 192.4 591.733 193.867 583.067 176.933C579.067 169.333 578.667 153.6 582 145.6C587.2 132.933 598.667 127.467 609.733 132.267Z" fill="black"/>
<path d="M825.733 116.933C818.667 118.8 809.467 124.933 805.2 130.8C799.2 139.2 796.933 148.533 797.6 163.6C798 175.067 798.533 177.333 802.533 184.667C807.467 193.733 812.933 198.8 821.467 201.733C828.933 204.4 841.867 204.267 849.867 201.467C856.667 198.933 869.333 188.8 869.333 185.733C869.333 183.6 863.067 178.4 860.4 178.4C859.467 178.4 855.6 180.8 851.867 183.733C841.2 192.133 830.667 192.533 821.733 184.667C816.533 180.133 813.333 173.867 813.333 168.4V165.067H842.667H872V161.333C871.867 153.333 869.2 139.333 866.8 134.533C863.733 128.533 856 121.467 849.733 118.933C844.133 116.533 831.333 115.467 825.733 116.933ZM846.267 133.067C851.333 136.133 854.267 140.4 855.467 146L856.267 150.133L835.867 150.667C824.533 151.067 814.8 150.8 814.133 150.267C810.8 147.467 819.333 134.8 826.667 131.867C832.267 129.6 841.6 130.133 846.267 133.067Z" fill="black"/>
<path d="M908 117.733C899.2 120.533 892.667 126.667 887.733 136.8C883.467 145.333 883.333 146.4 883.333 161.067C883.333 175.733 883.6 177.067 887.333 184.4C894.933 199.2 908.8 205.6 926.533 202.667C937.333 200.8 946.133 195.467 951.733 187.2C958.267 177.467 957.333 174.533 947.2 172.667C943.467 172 942.667 172.4 939.867 176.8C928.933 193.6 906.4 190.267 900 170.933C897.6 163.6 898.933 149.333 902.667 142.533C910.667 128.533 930.533 128.267 939.333 142.133C941.733 146 942.667 146.267 949.2 146.4H956.4L955.6 141.467C953.2 127.333 940.133 117.2 923.067 116.267C917.467 116 911.733 116.533 908 117.733Z" fill="black"/>
<path d="M989.867 117.867C982.8 120.4 974.133 127.867 972 133.2C970.4 136.933 970.4 137.6 972.8 139.333C978.4 143.467 981.2 143.067 987.067 137.333C994.533 130.267 997.2 129.067 1005.87 129.067C1012.13 129.067 1014 129.6 1017.47 132.8C1020.8 135.867 1021.6 137.467 1021.73 143.067L1022 149.733L1006 150.533C986.933 151.467 979.867 153.333 973.2 159.733C962.4 170 963.333 188.8 974.933 197.467C987.467 206.667 1006.27 205.867 1016.4 195.6C1019.33 192.8 1021.87 190.4 1022.13 190.4C1022.4 190.4 1022.67 192.8 1022.67 195.733V201.067H1030.67H1038.67V169.333C1038.53 129.867 1037.47 126 1024.67 119.333C1017.6 115.733 998 114.8 989.867 117.867ZM1021.33 169.867C1021.33 181.333 1010.53 189.867 997.6 188.8C991.333 188.267 989.6 187.467 986.4 183.867C982.533 179.467 981.733 175.867 984 171.733C986.667 166.667 991.867 165.2 1007.07 165.067H1021.33V169.867Z" fill="black"/>
<path d="M388.133 129.333C390.267 135.467 397.6 154.667 404.133 172.133C412.133 192.933 416 204.933 415.467 206.933C414.267 211.6 408.933 218.8 405.333 220.667C403.467 221.6 399.733 222.4 397.067 222.4H392V229.067V235.733H398.667C409.867 235.733 418.933 230.667 423.733 221.733C424.933 219.467 434.267 195.467 444.667 168.4L463.467 119.067L455.467 118.667C450.133 118.4 447.2 118.8 446.533 120C445.867 120.933 443.2 128.267 440.533 136.4C430.4 166.667 424.933 181.2 424 180.133C423.467 179.6 418.267 165.467 412.533 148.8L402 118.4H393.067H384.133L388.133 129.333Z" fill="black"/>
</svg>
